<?xml version="1.0" encoding="utf-8"?>
<!-- Generator: Adobe Illustrator 16.0.0, SVG Export Plug-In . SVG Version: 6.00 Build 0)  -->
<!DOCTYPE svg PUBLIC "-//W3C//DTD SVG 1.1//EN" "http://www.w3.org/Graphics/SVG/1.1/DTD/svg11.dtd">
<svg version="1.1" id="Layer_1" xmlns="http://www.w3.org/2000/svg" xmlns:xlink="http://www.w3.org/1999/xlink" x="0px" y="0px"
	 width="373.911px" height="223.8px" viewBox="0 0 373.911 223.8" enable-background="new 0 0 373.911 223.8" xml:space="preserve">
<g>
	<polygon fill="#FFFFFF" points="137.734,129.342 110.298,0 31.098,0 0,222 56.896,222 76.347,83.034 102.707,222 145.687,222 
		212.612,83.295 193.199,222 250.097,222 281.195,0 201.845,0 	"/>
	<path fill="#FFFFFF" d="M323.442,158.6c-4.396,0-8.739,0.82-12.913,2.441c-4.146,1.613-7.886,3.895-11.116,6.779
		c-3.204,2.859-5.924,6.272-8.085,10.14c-2.178,3.896-3.633,8.087-4.324,12.461c-0.715,4.529-0.465,8.901,0.741,12.986
		c1.188,4.049,3.078,7.636,5.617,10.656c2.591,3.088,5.881,5.518,9.779,7.219c3.824,1.671,8.03,2.518,12.501,2.518
		c4.409,0,8.717-0.826,12.806-2.457c4.001-1.599,7.706-3.855,11.009-6.706c3.328-2.869,6.12-6.3,8.301-10.198
		c2.181-3.904,3.636-8.096,4.324-12.459l0.018-0.128c1.187-9.024-1.017-16.896-6.552-23.395
		C339.973,161.916,332.535,158.6,323.442,158.6z"/>
	<polygon fill="#FFFFFF" points="318.809,0 299.274,138 354.377,138 373.911,0 	"/>
</g>
</svg>
